<?xml version="1.0" standalone="no"?>
<svg viewBox="0 0 200 200" xmlns="http://www.w3.org/2000/svg">
  <path fill="#66CDAA" d="M43.7,-70.1C54.6,-61,59.9,-45.4,67.2,-30.4C74.6,-15.4,83.8,-1,82.6,12.4C81.5,25.7,69.8,38.1,57.5,46.7C45.2,55.3,32.1,60.2,19.8,60.7C7.5,61.3,-4.1,57.5,-17,55C-29.9,52.6,-44,51.4,-57.3,44.8C-70.7,38.1,-83.2,26,-82.7,13.4C-82.2,0.8,-68.5,-12.1,-60.9,-27.4C-53.3,-42.7,-51.8,-60.5,-42.6,-70.3C-33.5,-80.2,-16.7,-82.2,-0.2,-82C16.4,-81.7,32.8,-79.1,43.7,-70.1Z" transform="translate(100 100)" />
</svg>
