<?xml version="1.0" standalone="no"?>
<svg viewBox="0 0 200 200" xmlns="http://www.w3.org/2000/svg">
  <path fill="#66CDAA" d="M39.2,-60.4C50.6,-53.6,59.5,-42.4,66.7,-29.6C73.9,-16.8,79.3,-2.3,78.9,12.4C78.5,27.1,72.1,42,61.4,51.8C50.7,61.5,35.7,66,21.6,67.5C7.4,68.9,-5.9,67.2,-21,65.5C-36,63.7,-52.8,62,-65.1,53.3C-77.5,44.7,-85.4,29,-85.5,13.7C-85.6,-1.7,-77.9,-16.9,-69,-29.5C-60.1,-42,-50,-52.1,-38.3,-58.7C-26.6,-65.3,-13.3,-68.6,0.3,-69.1C13.9,-69.5,27.8,-67.2,39.2,-60.4Z" transform="translate(100 100)" />
</svg>
