<?xml version="1.0" standalone="no"?>
<svg viewBox="0 0 200 200" xmlns="http://www.w3.org/2000/svg">
  <path fill="#66CDAA" d="M34.2,-45.6C46.9,-45,61.8,-40,68.9,-29.9C76.1,-19.7,75.5,-4.5,70.4,8C65.3,20.5,55.6,30.1,45.2,35.4C34.8,40.7,23.6,41.6,13.1,44.8C2.5,48,-7.4,53.5,-21.5,56.9C-35.7,60.3,-54,61.5,-61.4,53.1C-68.7,44.7,-65,26.8,-63.1,11.7C-61.2,-3.4,-61,-15.6,-56.2,-25.6C-51.5,-35.5,-42.2,-43.3,-32,-45.2C-21.9,-47,-10.9,-43,-0.1,-42.8C10.7,-42.6,21.4,-46.3,34.2,-45.6Z" transform="translate(100 100)" />
</svg>
