<?xml version="1.0" standalone="no"?>
<svg viewBox="0 0 200 200" xmlns="http://www.w3.org/2000/svg">
  <path fill="#66CDAA" d="M35.7,-58.2C47.6,-47.9,59.4,-40.2,64.1,-29.4C68.7,-18.7,66.2,-4.8,65.1,10.1C64.1,24.9,64.6,40.7,57,49.4C49.5,58.2,33.8,60,19.3,62.9C4.9,65.9,-8.4,69.9,-24,70.5C-39.5,71,-57.3,68,-66.6,57.6C-75.9,47.1,-76.6,29.1,-78.5,11.7C-80.3,-5.7,-83.2,-22.5,-76.6,-34.2C-70,-45.8,-53.9,-52.3,-39.5,-61.4C-25.2,-70.6,-12.6,-82.4,-0.3,-81.9C11.9,-81.3,23.8,-68.5,35.7,-58.2Z" transform="translate(100 100)" />
</svg>
