<?xml version="1.0" standalone="no"?>
<svg viewBox="0 0 200 200" xmlns="http://www.w3.org/2000/svg">
  <path fill="#66CDAA" d="M43,-64C55.6,-58.9,65.6,-46.7,66.7,-33.6C67.7,-20.5,59.8,-6.5,57.8,8.4C55.8,23.3,59.7,39.2,52.9,44.2C46.1,49.2,28.5,43.3,14.7,45C1,46.6,-9.1,55.8,-16.4,54.3C-23.7,52.8,-28.3,40.7,-38.7,31.8C-49.1,22.9,-65.1,17.3,-71.2,7.3C-77.2,-2.7,-73.2,-17.2,-66.5,-29.7C-59.7,-42.3,-50.3,-52.9,-38.8,-58.5C-27.2,-64.1,-13.6,-64.7,0.8,-65.9C15.2,-67.2,30.4,-69.1,43,-64Z" transform="translate(100 100)" />
</svg>
